<?xml version="1.0" standalone="no"?>
<!DOCTYPE svg PUBLIC "-//W3C//DTD SVG 20010904//EN"
 "http://www.w3.org/TR/2001/REC-SVG-20010904/DTD/svg10.dtd">
<svg version="1.0" xmlns="http://www.w3.org/2000/svg"
 width="700.000000pt" height="700.000000pt" viewBox="0 0 700.000000 700.000000"
 preserveAspectRatio="xMidYMid meet">
<metadata>
Created by potrace 1.11, written by Peter Selinger 2001-2013
</metadata>
<g transform="translate(0.000000,700.000000) scale(0.100000,-0.100000)"
fill="#000000" stroke="none">
<path d="M3355 6993 c-796 -54 -1499 -642 -1700 -1423 -34 -134 -45 -201 -59
-382 -10 -129 -16 -163 -32 -186 -24 -32 -98 -72 -133 -72 -42 0 -109 39 -133
78 -21 34 -23 47 -21 157 6 281 74 574 199 846 67 147 56 232 -37 279 -55 28
-93 25 -229 -19 -464 -153 -827 -470 -1036 -905 -323 -673 -184 -1470 348
-1993 108 -107 248 -214 359 -275 l78 -43 1 -676 0 -676 22 -33 c13 -18 36
-43 51 -54 l28 -21 2426 -3 c2405 -2 2427 -2 2467 18 23 11 52 36 66 57 l25
37 3 677 3 678 77 44 c439 253 748 695 844 1204 26 138 31 422 9 558 -136 864
-863 1495 -1722 1495 -73 0 -172 -5 -220 -12 l-89 -12 -112 110 c-175 170
-311 266 -513 364 -303 146 -622 207 -970 183z m-1535 -3195 c57 -29 80 -69
91 -161 24 -191 172 -483 394 -774 89 -116 100 -173 50 -250 -39 -59 -130 -80
-201 -47 -70 33 -307 379 -424 619 -80 165 -116 272 -132 399 -11 90 -11 94
13 142 18 37 35 54 69 72 24 12 56 22 70 22 14 0 46 -10 70 -22z m1750 0 c33
-17 51 -35 68 -68 22 -44 22 -45 22 -549 0 -486 -1 -506 -20 -545 -31 -62 -63
-81 -140 -81 -77 0 -109 19 -140 81 -19 39 -20 59 -20 545 0 504 0 505 23 549
24 48 88 90 137 90 14 0 46 -10 70 -22z m1747 2 c78 -35 103 -106 84 -234 -36
-233 -194 -550 -436 -871 -91 -122 -123 -145 -197 -145 -98 0 -173 97 -148
192 6 21 39 75 74 120 228 301 370 580 395 775 11 92 34 132 91 161 54 27 82
27 137 2z"/>
<path d="M1042 1253 c-18 -9 -43 -30 -55 -47 -21 -30 -22 -40 -25 -331 -2
-193 1 -321 8 -360 16 -85 89 -229 150 -297 68 -77 182 -151 283 -185 l82 -28
2015 0 2015 0 82 28 c101 34 215 108 283 185 60 66 132 209 152 297 9 42 13
148 13 350 0 272 -1 292 -20 324 -11 19 -33 43 -48 55 l-28 21 -2437 2 c-2230
2 -2440 1 -2470 -14z"/>
</g>
</svg>
