<?xml version="1.0" standalone="no"?>
<!DOCTYPE svg PUBLIC "-//W3C//DTD SVG 20010904//EN"
 "http://www.w3.org/TR/2001/REC-SVG-20010904/DTD/svg10.dtd">
<svg version="1.0" xmlns="http://www.w3.org/2000/svg"
 width="700.000000pt" height="700.000000pt" viewBox="0 0 700.000000 700.000000"
 preserveAspectRatio="xMidYMid meet">
<metadata>
Created by potrace 1.11, written by Peter Selinger 2001-2013
</metadata>
<g transform="translate(0.000000,700.000000) scale(0.100000,-0.100000)"
fill="#000000" stroke="none">
<path d="M3355 6994 c-236 -27 -350 -53 -520 -116 -582 -216 -1032 -716 -1184
-1315 -29 -115 -40 -190 -55 -369 -11 -139 -16 -166 -35 -193 -47 -65 -145
-85 -212 -43 -69 43 -80 86 -68 270 18 283 77 520 200 793 47 105 52 167 17
219 -29 41 -82 70 -129 70 -69 0 -278 -73 -421 -147 -602 -310 -973 -943 -945
-1612 3 -80 13 -184 21 -231 38 -207 118 -425 221 -598 156 -263 406 -501 684
-654 l31 -17 0 -674 0 -674 23 -33 c12 -18 35 -43 50 -54 l28 -21 2426 -3
2426 -2 43 21 c26 12 53 36 66 57 l23 37 5 677 5 677 82 49 c134 81 211 140
326 251 273 264 443 582 514 964 21 117 24 424 4 547 -122 768 -711 1356
-1477 1474 -120 19 -341 21 -465 4 l-89 -12 -117 115 c-259 252 -525 403 -860
490 -184 47 -460 71 -618 53z m-1520 -3202 c38 -22 75 -94 75 -146 0 -145 165
-478 372 -752 41 -54 80 -109 86 -121 17 -31 15 -109 -3 -143 -23 -45 -82 -80
-133 -80 -70 0 -104 23 -180 123 -270 355 -430 683 -457 938 -6 55 -4 74 12
110 23 51 39 66 90 85 43 16 94 10 138 -14z m1750 0 c17 -10 40 -38 53 -62
l22 -45 -2 -517 c-3 -506 -3 -517 -24 -545 -73 -98 -195 -98 -268 0 -21 28
-21 39 -24 540 -3 548 -1 567 48 612 49 45 132 52 195 17z m1750 0 c17 -10 40
-38 53 -62 20 -40 22 -54 17 -118 -22 -246 -186 -583 -457 -939 -76 -100 -110
-123 -180 -123 -51 0 -110 35 -133 80 -18 34 -20 112 -4 142 6 11 48 71 93
132 215 290 365 595 366 742 0 43 28 111 53 133 51 41 132 47 192 13z"/>
<path d="M1040 1252 c-84 -42 -95 -99 -87 -461 6 -267 13 -315 68 -425 89
-178 258 -312 444 -351 105 -22 3965 -22 4070 0 186 39 355 173 444 351 60
122 65 159 66 489 0 285 -1 302 -21 335 -11 19 -35 45 -54 57 l-33 23 -2431 0
c-2294 0 -2433 -1 -2466 -18z"/>
</g>
</svg>
